<svg width="80" height="80" viewBox="0 0 80 80" fill="none" xmlns="http://www.w3.org/2000/svg">
<rect width="80" height="80" rx="5.1282" fill="#EE7203"/>
<g clip-path="url(#clip0_1798_17)">
<path d="M41.776 34.1054C41.264 34.1054 40.856 33.6911 40.856 33.1732V27.5961C40.856 27.0862 41.264 26.6639 41.776 26.6639C42.288 26.6639 42.696 27.0782 42.696 27.5961V33.1732C42.704 33.6911 42.296 34.1054 41.776 34.1054Z" fill="white"/>
<path d="M46.904 34.1133C46.392 34.1133 45.984 33.699 45.984 33.1811V28.8469C45.984 28.337 46.392 27.9147 46.904 27.9147C47.416 27.9147 47.824 28.329 47.824 28.8469V33.1891C47.832 33.699 47.424 34.1133 46.904 34.1133Z" fill="white"/>
<path d="M52.856 39.0689C52.344 39.0689 51.936 38.6546 51.936 38.1368V26.9825C51.936 26.4726 52.344 26.0504 52.856 26.0504C53.368 26.0504 53.776 26.4647 53.776 26.9825V38.1368C53.776 38.6467 53.368 39.0689 52.856 39.0689Z" fill="white"/>
<path d="M33.84 36.7504C31.72 36.7504 29.992 35.0295 29.992 32.9182C29.992 30.8068 31.72 29.0859 33.84 29.0859C35.96 29.0859 37.688 30.8068 37.688 32.9182C37.688 35.0295 35.968 36.7504 33.84 36.7504ZM33.84 30.9423C32.744 30.9423 31.856 31.8266 31.856 32.9182C31.856 34.0097 32.744 34.894 33.84 34.894C34.936 34.894 35.824 34.0097 35.824 32.9182C35.824 31.8266 34.936 30.9423 33.84 30.9423Z" fill="white"/>
<path d="M64 30.3847C63.952 23.1344 48.384 20.8 39.92 20.8C31.936 20.8 16.048 22.5687 16 30.4962V53.5058C16 56.151 17.784 58.2464 21.568 59.7363C21.68 59.7841 22.672 59.8797 22.672 58.8758V49.2353C24.096 48.59 25.768 48.0243 27.656 47.5702V50.7332C27.688 52.1354 28.304 53.2588 29.76 53.2588C31.848 53.1951 31.96 51.4423 32 50.7173V43.8335C32 43.3475 31.64 42.9173 31.16 42.8694C30.6 42.8216 30.136 43.2519 30.136 43.7937V50.6615C30.136 51.6176 29.528 51.6176 29.528 50.7173C29.528 50.7173 29.528 40.2641 29.528 40.2482C29.712 40.0968 30.496 39.6268 33.624 39.3798C33.8 39.3638 44.176 36.5195 44.488 36.408C44.928 36.2406 45.288 36.9497 44.776 37.1409L37.824 39.6825C37.456 39.818 37.216 40.1606 37.216 40.551V52.0637C37.216 52.5497 37.568 52.98 38.056 53.0278C38.616 53.0835 39.08 52.6453 39.08 52.1036V46.2157C47.84 46.0962 54.336 47.7932 57.744 49.4744V58.8758C57.744 59.5849 58.424 59.9912 59.016 59.7203C62.208 58.2623 63.992 55.9996 63.992 53.5058V30.3847H64ZM20.832 57.4496C18.864 56.3979 17.84 55.163 17.752 53.6891C17.8 53.5775 17.752 33.4999 17.752 33.4999C18.792 34.6312 20.168 35.4758 20.832 35.906V57.4496ZM58.168 34.5755C57.896 34.7428 57.752 35.0455 57.752 35.3642V47.4268C52.336 45.0445 45.04 44.2797 39.088 44.3593V41.1963L45.432 38.8778C45.992 38.6707 46.44 38.2484 46.688 37.7066C46.936 37.1649 46.952 36.5514 46.728 35.9698C46.272 34.7826 44.944 34.2488 43.856 34.6631C43.792 34.687 33.6 37.5234 33.48 37.5313C30.328 37.7783 28.688 38.2723 28 39.1726C27.72 39.5311 27.608 39.9534 27.664 40.3836V45.658C25.816 46.0882 24.144 46.6061 22.68 47.2116V35.3642C22.68 35.0216 22.576 34.703 22.272 34.5436C21.192 33.962 18.184 31.9064 18.184 30.0978C18.184 26.5843 27.136 22.6643 39.968 22.6643C52.8 22.6643 61.752 26.5843 61.752 30.0978C61.752 31.9463 59.168 33.954 58.168 34.5755ZM59.592 57.3222V35.8662C60.208 35.4598 61.296 34.695 62.152 33.6831C62.152 33.6831 62.144 53.466 62.152 53.5138C62.144 54.916 61.232 56.2545 59.592 57.3222Z" fill="white"/>
</g>
<defs>
<clipPath id="clip0_1798_17">
<rect width="48" height="48" fill="white" transform="translate(16 16)"/>
</clipPath>
</defs>
</svg>
