<svg width="80" height="80" viewBox="0 0 80 80" fill="none" xmlns="http://www.w3.org/2000/svg">
    <rect width="80" height="80" rx="5.1282" fill="#EE7203"/>
    <g clip-path="url(#clip0_922_2059)">
        <path d="M29.0237 16.3196C23.386 16.3196 18.7965 20.3338 18.7965 25.2685C18.7965 30.2031 23.386 34.2173 29.0237 34.2173C30.0785 34.216 31.1281 34.0698 32.143 33.7826L35.6778 36.0326C35.7743 36.0945 35.8857 36.1293 36.0003 36.1334C36.1148 36.1375 36.2284 36.1107 36.3291 36.0558C36.4297 36.0009 36.5138 35.9199 36.5724 35.8214C36.631 35.7228 36.662 35.6103 36.6622 35.4957V31.1938C37.462 30.4266 38.1002 29.5071 38.5393 28.4895C38.9784 27.4719 39.2095 26.3767 39.219 25.2685C39.251 20.3338 34.6615 16.3196 29.0237 16.3196ZM35.6011 30.4524C35.5368 30.512 35.4855 30.5842 35.4503 30.6644C35.4152 30.7447 35.3968 30.8313 35.3966 30.919V34.3323L32.5969 32.549C32.5188 32.4996 32.4309 32.4677 32.3393 32.4556C32.2477 32.4435 32.1546 32.4513 32.0663 32.4786C31.0811 32.7846 30.0553 32.9398 29.0237 32.9389C24.0891 32.9389 20.0749 29.5 20.0749 25.2685C20.0749 21.0369 24.0891 17.598 29.0237 17.598C33.9584 17.598 37.9725 21.0369 37.9725 25.2685C37.958 26.2497 37.7397 27.2172 37.3314 28.1095C36.9232 29.0019 36.334 29.7997 35.6011 30.4524Z" fill="white"/>
        <path d="M33.4981 24.6292H24.5493C24.3798 24.6292 24.2172 24.6966 24.0973 24.8164C23.9775 24.9363 23.9101 25.0989 23.9101 25.2684C23.9101 25.4379 23.9775 25.6005 24.0973 25.7204C24.2172 25.8403 24.3798 25.9076 24.5493 25.9076H33.4981C33.6677 25.9076 33.8303 25.8403 33.9501 25.7204C34.07 25.6005 34.1373 25.4379 34.1373 25.2684C34.1373 25.0989 34.07 24.9363 33.9501 24.8164C33.8303 24.6966 33.6677 24.6292 33.4981 24.6292Z" fill="white"/>
        <path d="M31.4207 27.8252H26.6267C26.4572 27.8252 26.2946 27.8925 26.1747 28.0124C26.0549 28.1323 25.9875 28.2949 25.9875 28.4644C25.9875 28.6339 26.0549 28.7965 26.1747 28.9164C26.2946 29.0363 26.4572 29.1036 26.6267 29.1036H31.4207C31.5903 29.1036 31.7528 29.0363 31.8727 28.9164C31.9926 28.7965 32.0599 28.6339 32.0599 28.4644C32.0599 28.2949 31.9926 28.1323 31.8727 28.0124C31.7528 27.8925 31.5903 27.8252 31.4207 27.8252Z" fill="white"/>
        <path d="M24.7283 22.7117H33.3192C33.4887 22.7117 33.6513 22.6443 33.7711 22.5245C33.891 22.4046 33.9584 22.242 33.9584 22.0725C33.9584 21.903 33.891 21.7404 33.7711 21.6205C33.6513 21.5006 33.4887 21.4333 33.3192 21.4333H24.7283C24.5588 21.4333 24.3962 21.5006 24.2763 21.6205C24.1564 21.7404 24.0891 21.903 24.0891 22.0725C24.0891 22.242 24.1564 22.4046 24.2763 22.5245C24.3962 22.6443 24.5588 22.7117 24.7283 22.7117V22.7117Z" fill="white"/>
    </g>
    <path d="M41.4765 53.6827L43.2808 45.8682L43.6417 46.6497H45.807L46.1678 45.8682L47.9722 53.6827L44.7243 57.0038L41.4765 53.6827Z" stroke="white" stroke-width="1.2784" stroke-linejoin="round"/>
    <path d="M43.0144 46.1571L41.1656 42.7957H48.2352L46.2184 46.1571H43.0144Z" stroke="white" stroke-width="1.2784" stroke-linejoin="round"/>
    <rect x="37.94" y="23.3083" width="13.569" height="19.1368" rx="6.78452" stroke="white" stroke-width="1.2784"/>
    <path fill-rule="evenodd" clip-rule="evenodd" d="M46.0284 28.7933C46.4776 28.8153 46.8821 29.0717 47.0938 29.4685C47.3308 29.913 47.9368 30.7031 48.8495 31.3743C49.4347 31.8046 50.1138 32.1629 50.8697 32.3606L50.8698 29.6288C50.8698 28.7094 50.3771 27.2554 49.3216 26.024C48.2968 24.8284 46.833 23.9475 44.9564 23.9475C42.6798 23.9475 41.1085 24.8729 40.0885 26.0352C39.0323 27.2388 38.5791 28.6837 38.5791 29.6288L38.5791 32.4641C42.3101 32.0938 44.3637 30.1686 44.9021 29.361C45.1515 28.9868 45.5792 28.7712 46.0284 28.7933ZM38.5791 33.7482C38.1697 33.7849 37.7436 33.8046 37.3007 33.8046V32.5262L37.3007 29.6288C37.3007 27.0769 39.6206 22.669 44.9564 22.6691C49.5963 22.6691 52.1482 27.0769 52.1482 29.6288L52.1481 32.5262V33.8046C52.1481 33.8046 52.148 33.8046 52.148 33.8046C51.7033 33.8046 51.2766 33.7576 50.8697 33.6733C49.0474 33.2957 47.621 32.1698 46.7451 31.1655C46.3931 30.7619 46.1299 30.378 45.9658 30.0701C45.7758 30.3551 45.4797 30.7052 45.0763 31.0758C43.8741 32.1802 41.7186 33.4662 38.5791 33.7482Z" fill="white"/>
    <path d="M30.3409 54.6839C30.3409 54.6839 30.3825 42.3884 44.7244 42.3884C59.0662 42.3884 59.0662 54.6839 59.0662 54.6839V61.1796H45.9351H30.3409V54.6839Z" stroke="white" stroke-width="1.2784" stroke-linecap="round" stroke-linejoin="round"/>
    <defs>
        <clipPath id="clip0_922_2059">
            <rect width="20.4544" height="20.4544" fill="white" transform="translate(18.7965 16)"/>
        </clipPath>
    </defs>
</svg>
