<svg width="80" height="80" viewBox="0 0 80 80" fill="none" xmlns="http://www.w3.org/2000/svg">
<rect width="80" height="80" rx="5.1282" fill="#EE7203"/>
<path d="M59.5 38.6425H49.81V37.2475C49.81 37.0486 49.7309 36.8578 49.5903 36.7172C49.4497 36.5766 49.2589 36.4975 49.06 36.4975H45.85V27.5425C45.85 27.3436 45.7709 27.1528 45.6303 27.0122C45.4897 26.8716 45.2989 26.7925 45.1 26.7925H40.75V23.9125H46.6225C46.7748 23.9136 46.9239 23.8683 47.0498 23.7825C47.1758 23.6967 47.2726 23.5746 47.3275 23.4325C47.3827 23.2897 47.393 23.1333 47.3568 22.9845C47.3206 22.8357 47.2397 22.7015 47.125 22.6L45.3925 21.1L47.1175 19.6C47.232 19.5 47.3134 19.3675 47.3509 19.2202C47.3884 19.0728 47.3802 18.9176 47.3275 18.775C47.2801 18.6244 47.1865 18.4927 47.0599 18.3984C46.9333 18.3041 46.7803 18.2522 46.6225 18.25H40C39.8011 18.25 39.6103 18.329 39.4696 18.4697C39.329 18.6103 39.25 18.8011 39.25 19V26.7925H34.9C34.7011 26.7925 34.5103 26.8716 34.3696 27.0122C34.229 27.1528 34.15 27.3436 34.15 27.5425V36.4975H30.85C30.6511 36.4975 30.4603 36.5766 30.3196 36.7172C30.179 36.8578 30.1 37.0486 30.1 37.2475V38.6425H20.5C20.301 38.6425 20.1103 38.7216 19.9696 38.8622C19.829 39.0028 19.75 39.1936 19.75 39.3925V61C19.75 61.1989 19.829 61.3897 19.9696 61.5303C20.1103 61.671 20.301 61.75 20.5 61.75H59.5C59.6989 61.75 59.8897 61.671 60.0303 61.5303C60.1709 61.3897 60.25 61.1989 60.25 61V39.3925C60.25 39.1936 60.1709 39.0028 60.0303 38.8622C59.8897 38.7216 59.6989 38.6425 59.5 38.6425ZM40.75 19.75H44.6275L43.75 20.5C43.6702 20.5704 43.6063 20.6569 43.5625 20.7539C43.5187 20.8509 43.496 20.9561 43.496 21.0625C43.496 21.1689 43.5187 21.2741 43.5625 21.3711C43.6063 21.4681 43.6702 21.5546 43.75 21.625L44.635 22.375H40.75V19.75ZM35.65 28.2925H44.35V36.4975H35.65V28.2925ZM21.25 40.1425H30.1V60.25H21.25V40.1425ZM31.615 39.3925V37.9975H48.31V60.25H44.995V52.1875H46.2025C46.4014 52.1875 46.5922 52.1085 46.7328 51.9678C46.8734 51.8272 46.9525 51.6364 46.9525 51.4375C46.9525 51.2386 46.8734 51.0478 46.7328 50.9072C46.5922 50.7666 46.4014 50.6875 46.2025 50.6875H33.7975C33.5986 50.6875 33.4078 50.7666 33.2671 50.9072C33.1265 51.0478 33.0475 51.2386 33.0475 51.4375C33.0475 51.6364 33.1265 51.8272 33.2671 51.9678C33.4078 52.1085 33.5986 52.1875 33.7975 52.1875H34.9975V60.25H31.6L31.615 39.3925ZM36.4975 60.25V52.1875H43.495V60.25H36.4975ZM58.75 60.25H49.81V40.1425H58.75V60.25Z" fill="white"/>
<path d="M38.4098 46.0975H41.5973C41.7962 46.0975 41.987 46.0184 42.1276 45.8778C42.2683 45.7372 42.3473 45.5464 42.3473 45.3475V42.16C42.3473 41.9611 42.2683 41.7703 42.1276 41.6296C41.987 41.4889 41.7962 41.41 41.5973 41.41H38.4098C38.2109 41.41 38.0201 41.4889 37.8795 41.6296C37.7388 41.7703 37.6598 41.9611 37.6598 42.16V45.3475C37.6598 45.5464 37.7388 45.7372 37.8795 45.8778C38.0201 46.0184 38.2109 46.0975 38.4098 46.0975ZM39.1598 42.91H40.8473V44.5975H39.1598V42.91Z" fill="white"/>
<path d="M52.6976 46.0975H55.8851C56.084 46.0975 56.2747 46.0184 56.4154 45.8778C56.556 45.7372 56.6351 45.5464 56.6351 45.3475V42.16C56.6351 41.9611 56.556 41.7703 56.4154 41.6296C56.2747 41.4889 56.084 41.41 55.8851 41.41H52.6976C52.4987 41.41 52.3079 41.4889 52.1672 41.6296C52.0265 41.7703 51.9476 41.9611 51.9476 42.16V45.3475C51.9476 45.5464 52.0265 45.7372 52.1672 45.8778C52.3079 46.0184 52.4987 46.0975 52.6976 46.0975ZM53.4476 42.91H55.1351V44.5975H53.4476V42.91Z" fill="white"/>
<path d="M52.6976 53.7849H55.8851C56.084 53.7849 56.2747 53.7059 56.4154 53.5652C56.556 53.4246 56.6351 53.2338 56.6351 53.0349V49.8474C56.6351 49.6485 56.556 49.4577 56.4154 49.3171C56.2747 49.1764 56.084 49.0974 55.8851 49.0974H52.6976C52.4987 49.0974 52.3079 49.1764 52.1672 49.3171C52.0265 49.4577 51.9476 49.6485 51.9476 49.8474V53.0349C51.9476 53.2338 52.0265 53.4246 52.1672 53.5652C52.3079 53.7059 52.4987 53.7849 52.6976 53.7849ZM53.4476 50.5974H55.1351V52.2849H53.4476V50.5974Z" fill="white"/>
<path d="M27.25 41.41H24.0775C23.8786 41.41 23.6878 41.4889 23.5471 41.6296C23.4065 41.7703 23.3275 41.9611 23.3275 42.16V45.3475C23.3275 45.5464 23.4065 45.7372 23.5471 45.8778C23.6878 46.0184 23.8786 46.0975 24.0775 46.0975H27.25C27.4489 46.0975 27.6397 46.0184 27.7803 45.8778C27.921 45.7372 28 45.5464 28 45.3475V42.16C28 41.9611 27.921 41.7703 27.7803 41.6296C27.6397 41.4889 27.4489 41.41 27.25 41.41ZM26.5 44.5975H24.8275V42.91H26.5V44.5975Z" fill="white"/>
<path d="M27.25 49.0974H24.0775C23.8786 49.0974 23.6878 49.1764 23.5471 49.3171C23.4065 49.4577 23.3275 49.6485 23.3275 49.8474V53.0349C23.3275 53.2338 23.4065 53.4246 23.5471 53.5652C23.6878 53.7059 23.8786 53.7849 24.0775 53.7849H27.25C27.4489 53.7849 27.6397 53.7059 27.7803 53.5652C27.921 53.4246 28 53.2338 28 53.0349V49.8474C28 49.6485 27.921 49.4577 27.7803 49.3171C27.6397 49.1764 27.4489 49.0974 27.25 49.0974ZM26.5 52.2849H24.8275V50.5974H26.5V52.2849Z" fill="white"/>
<path d="M41.5973 30.0552H38.4098C38.2109 30.0552 38.0201 30.1342 37.8795 30.2749C37.7388 30.4156 37.6598 30.6063 37.6598 30.8052V34.0002C37.6598 34.1992 37.7388 34.3899 37.8795 34.5305C38.0201 34.6712 38.2109 34.7502 38.4098 34.7502H41.5973C41.7962 34.7502 41.987 34.6712 42.1276 34.5305C42.2683 34.3899 42.3473 34.1992 42.3473 34.0002V30.8052C42.3473 30.6063 42.2683 30.4156 42.1276 30.2749C41.987 30.1342 41.7962 30.0552 41.5973 30.0552ZM40.8473 33.2427H39.1598V31.5552H40.8473V33.2427Z" fill="white"/>
</svg>
