<svg width="8" height="23" viewBox="0 0 8 23" fill="none" xmlns="http://www.w3.org/2000/svg">
<path d="M4 8C2.90034 8 1.95189 7.62887 1.15464 6.8866C0.38488 6.11684 0 5.14089 0 3.95876C0 2.77663 0.38488 1.82818 1.15464 1.1134C1.95189 0.371134 2.90034 0 4 0C5.12715 0 6.0756 0.371134 6.84536 1.1134C7.61512 1.82818 8 2.77663 8 3.95876C8 5.14089 7.61512 6.11684 6.84536 6.8866C6.0756 7.62887 5.12715 8 4 8ZM4 22.8041C2.90034 22.8041 1.95189 22.433 1.15464 21.6907C0.38488 20.921 0 19.945 0 18.7629C0 17.5808 0.38488 16.6323 1.15464 15.9175C1.95189 15.1753 2.90034 14.8041 4 14.8041C5.12715 14.8041 6.0756 15.1753 6.84536 15.9175C7.61512 16.6323 8 17.5808 8 18.7629C8 19.945 7.61512 20.921 6.84536 21.6907C6.0756 22.433 5.12715 22.8041 4 22.8041Z" fill="white"/>
</svg>
